<svg width="969" height="202" viewBox="0 0 969 202" fill="none" xmlns="http://www.w3.org/2000/svg">
<g clip-path="url(#clip0_329_21)">
<path d="M86.4583 1.71469C88.5401 0.535372 91.0913 0.549723 93.161 1.74955L174.337 48.8029C176.43 50.0163 177.709 52.2562 177.696 54.671L177.228 147.908C177.215 150.327 175.907 152.548 173.811 153.739L173.809 153.741L92.1667 199.966L92.1643 199.963C90.0801 201.144 87.5312 201.13 85.4641 199.933L85.4616 199.931L4.28778 152.88L4.28538 152.877C2.19999 151.666 0.914431 149.431 0.926847 147.012L1.39463 53.772L1.39465 53.7696C1.40795 51.3533 2.71548 49.1276 4.8163 47.9371L86.4583 1.71469ZM8.82962 54.211L8.36709 146.644L88.845 193.294L169.791 147.467L170.255 55.0335L89.7753 8.38152L8.82962 54.211Z" fill="#2653A0"/>
<path d="M89.5998 70.5963C86.0313 62.6104 80.0195 56.0923 76.1689 52.3281L103.377 52.5876C93.327 61.9346 90.3378 69.6094 89.5998 70.5963Z" fill="#2653A0"/>
<path d="M80.2399 100.667C80.4997 73.424 49.7898 62.6711 36.7649 62.5469L36.3242 108.762C36.0204 140.625 71.0253 147.527 79.7922 147.611L80.2399 100.667Z" fill="#2653A0"/>
<path d="M98.3744 100.828C98.6342 73.5851 129.544 63.4199 142.569 63.5441L142.128 109.759C141.824 141.622 106.694 147.855 97.9268 147.772L98.3744 100.828Z" fill="#2653A0"/>
<path d="M969.003 40.8312H947.684C947.4 38.6425 946.817 36.6669 945.936 34.9045C945.054 33.1422 943.889 31.6356 942.439 30.3849C940.99 29.1342 939.27 28.182 937.28 27.5282C935.319 26.846 933.144 26.5049 930.757 26.5049C926.521 26.5049 922.869 27.5424 919.799 29.6174C916.757 31.6925 914.412 34.6913 912.763 38.614C911.143 42.5367 910.333 47.2837 910.333 52.8551C910.333 58.6539 911.157 63.5146 912.806 67.4373C914.483 71.3315 916.828 74.2735 919.841 76.2633C922.883 78.2247 926.479 79.2053 930.629 79.2053C932.959 79.2053 935.077 78.9069 936.982 78.3099C938.915 77.713 940.606 76.846 942.056 75.709C943.534 74.5436 944.742 73.1365 945.68 71.4879C946.646 69.8108 947.314 67.9205 947.684 65.817L969.003 65.9449C968.633 69.8108 967.51 73.6198 965.634 77.3719C963.787 81.124 961.243 84.5493 958.002 87.6476C954.762 90.7176 950.811 93.1621 946.149 94.9814C941.515 96.8006 936.2 97.7102 930.202 97.7102C922.3 97.7102 915.222 95.9762 908.969 92.5084C902.743 89.0121 897.826 83.9239 894.216 77.244C890.606 70.564 888.801 62.4344 888.801 52.8551C888.801 43.2474 890.634 35.1035 894.301 28.4236C897.968 21.7436 902.928 16.6697 909.182 13.2018C915.435 9.73394 922.442 8 930.202 8C935.489 8 940.378 8.73906 944.87 10.2172C949.361 11.6669 953.312 13.7988 956.723 16.6129C960.134 19.3985 962.906 22.8238 965.037 26.8886C967.169 30.9534 968.491 35.601 969.003 40.8312Z" fill="#2653A0"/>
<path d="M876.467 9.19531V96.5178H858.559L823.809 46.1198H823.255V96.5178H802.149V9.19531H820.313L854.679 59.5081H855.404V9.19531H876.467Z" fill="#2653A0"/>
<path d="M790.073 40.8312H768.754C768.469 38.6425 767.887 36.6669 767.005 34.9045C766.124 33.1422 764.959 31.6356 763.509 30.3849C762.059 29.1342 760.34 28.182 758.35 27.5282C756.389 26.846 754.214 26.5049 751.826 26.5049C747.591 26.5049 743.938 27.5424 740.868 29.6174C737.827 31.6925 735.482 34.6913 733.833 38.614C732.213 42.5367 731.403 47.2837 731.403 52.8551C731.403 58.6539 732.227 63.5146 733.876 67.4373C735.553 71.3315 737.898 74.2735 740.911 76.2633C743.953 78.2247 747.548 79.2053 751.698 79.2053C754.029 79.2053 756.147 78.9069 758.051 78.3099C759.984 77.713 761.676 76.846 763.125 75.709C764.604 74.5436 765.812 73.1365 766.75 71.4879C767.716 69.8108 768.384 67.9205 768.754 65.817L790.073 65.9449C789.703 69.8108 788.58 73.6198 786.704 77.3719C784.856 81.124 782.312 84.5493 779.072 87.6476C775.831 90.7176 771.88 93.1621 767.219 94.9814C762.585 96.8006 757.27 97.7102 751.272 97.7102C743.37 97.7102 736.292 95.9762 730.038 92.5084C723.813 89.0121 718.896 83.9239 715.286 77.244C711.676 70.564 709.871 62.4344 709.871 52.8551C709.871 43.2474 711.704 35.1035 715.371 28.4236C719.038 21.7436 723.998 16.6697 730.252 13.2018C736.505 9.73394 743.512 8 751.272 8C756.559 8 761.448 8.73906 765.939 10.2172C770.431 11.6669 774.382 13.7988 777.793 16.6129C781.204 19.3985 783.975 22.8238 786.107 26.8886C788.239 30.9534 789.561 35.601 790.073 40.8312Z" fill="#2653A0"/>
<path d="M595.196 96.5178V9.19531H616.302V44.2437H650.71V9.19531H671.773V96.5178H650.71V61.4268H616.302V96.5178H595.196Z" fill="#2653A0"/>
<path d="M583.118 40.8312H561.799C561.515 38.6425 560.933 36.6669 560.051 34.9045C559.17 33.1422 558.005 31.6356 556.555 30.3849C555.105 29.1342 553.386 28.182 551.396 27.5282C549.434 26.846 547.26 26.5049 544.872 26.5049C540.637 26.5049 536.984 27.5424 533.914 29.6174C530.873 31.6925 528.528 34.6913 526.879 38.614C525.259 42.5367 524.449 47.2837 524.449 52.8551C524.449 58.6539 525.273 63.5146 526.922 67.4373C528.599 71.3315 530.944 74.2735 533.957 76.2633C536.998 78.2247 540.594 79.2053 544.744 79.2053C547.075 79.2053 549.193 78.9069 551.097 78.3099C553.03 77.713 554.722 76.846 556.171 75.709C557.649 74.5436 558.857 73.1365 559.796 71.4879C560.762 69.8108 561.43 67.9205 561.799 65.817L583.118 65.9449C582.749 69.8108 581.626 73.6198 579.75 77.3719C577.902 81.124 575.358 84.5493 572.118 87.6476C568.877 90.7176 564.926 93.1621 560.265 94.9814C555.631 96.8006 550.316 97.7102 544.318 97.7102C536.416 97.7102 529.338 95.9762 523.084 92.5084C516.859 89.0121 511.942 83.9239 508.332 77.244C504.722 70.564 502.917 62.4344 502.917 52.8551C502.917 43.2474 504.75 35.1035 508.417 28.4236C512.084 21.7436 517.044 16.6697 523.297 13.2018C529.551 9.73394 536.558 8 544.318 8C549.605 8 554.494 8.73906 558.985 10.2172C563.477 11.6669 567.428 13.7988 570.839 16.6129C574.25 19.3985 577.021 22.8238 579.153 26.8886C581.285 30.9534 582.607 35.601 583.118 40.8312Z" fill="#2653A0"/>
<path d="M429.75 96.5178V9.19531H490.637V26.3358H450.856V44.2437H487.524V61.4268H450.856V79.3773H490.637V96.5178H429.75Z" fill="#2653A0"/>
<path d="M345.636 26.3358V9.19531H419.442V26.3358H392.964V96.5178H372.157V26.3358H345.636Z" fill="#2653A0"/>
<path d="M229 9.19531H252.579L271.041 45.7361H271.808L290.271 9.19531H313.849L281.914 67.3535V96.5178H260.936V67.3535L229 9.19531Z" fill="#2653A0"/>
<path d="M289.801 156.878C289.833 153.501 290.64 150.478 292.222 147.811C293.837 145.144 295.993 143.078 298.689 141.613C301.419 140.116 304.39 139.383 307.602 139.413C311.278 139.448 314.531 140.39 317.361 142.239C320.225 144.054 322.287 146.624 323.547 149.948L316.742 149.883C315.865 148.053 314.636 146.683 313.055 145.774C311.474 144.865 309.641 144.4 307.555 144.38C305.27 144.359 303.228 144.852 301.43 145.862C299.632 146.871 298.211 148.332 297.166 150.242C296.154 152.154 295.636 154.384 295.612 156.934C295.588 159.484 296.063 161.724 297.038 163.654C298.047 165.584 299.44 167.088 301.218 168.164C302.996 169.208 305.028 169.741 307.313 169.762C309.399 169.782 311.241 169.353 312.839 168.474C314.437 167.595 315.692 166.249 316.603 164.436L323.408 164.501C322.085 167.8 319.975 170.33 317.077 172.091C314.212 173.852 310.941 174.715 307.266 174.68C304.021 174.649 301.064 173.876 298.396 172.36C295.728 170.811 293.612 168.688 292.048 165.99C290.518 163.293 289.768 160.256 289.801 156.878ZM341.807 175.158C339.224 175.134 336.895 174.532 334.819 173.353C332.745 172.141 331.121 170.47 329.949 168.339C328.778 166.175 328.205 163.686 328.232 160.871C328.259 158.09 328.895 155.628 330.141 153.488C331.386 151.347 333.074 149.707 335.205 148.568C337.335 147.43 339.708 146.873 342.324 146.898C344.94 146.923 347.303 147.525 349.411 148.704C351.519 149.883 353.175 151.555 354.38 153.719C355.585 155.883 356.174 158.356 356.147 161.137C356.121 163.919 355.468 166.38 354.189 168.52C352.911 170.661 351.173 172.317 348.976 173.488C346.812 174.626 344.423 175.183 341.807 175.158ZM341.853 170.241C343.31 170.255 344.671 169.92 345.936 169.237C347.234 168.553 348.287 167.52 349.095 166.137C349.903 164.754 350.317 163.069 350.336 161.082C350.355 159.095 349.99 157.419 349.241 156.054C348.493 154.656 347.493 153.604 346.241 152.896C344.989 152.189 343.635 151.828 342.178 151.814C340.721 151.8 339.36 152.135 338.095 152.818C336.863 153.502 335.876 154.536 335.135 155.92C334.393 157.271 334.013 158.939 333.994 160.926C333.966 163.873 334.689 166.165 336.164 167.802C337.672 169.406 339.569 170.219 341.853 170.241ZM395.009 147.4C397.161 147.421 399.078 147.886 400.758 148.796C402.471 149.707 403.8 151.044 404.744 152.808C405.72 154.573 406.197 156.697 406.173 159.18L406.019 175.324L400.406 175.27L400.552 159.971C400.575 157.521 399.981 155.644 398.768 154.341C397.555 153.005 395.889 152.326 393.77 152.306C391.651 152.286 389.956 152.932 388.685 154.245C387.447 155.524 386.817 157.39 386.793 159.84L386.647 175.139L381.034 175.085L381.18 159.787C381.204 157.336 380.609 155.459 379.396 154.156C378.183 152.82 376.517 152.142 374.398 152.121C372.279 152.101 370.584 152.747 369.313 154.06C368.075 155.34 367.445 157.205 367.421 159.655L367.276 174.954L361.613 174.9L361.874 147.531L367.537 147.585L367.507 150.714C368.445 149.597 369.629 148.731 371.058 148.116C372.488 147.5 374.015 147.2 375.637 147.215C377.823 147.236 379.772 147.718 381.485 148.662C383.198 149.606 384.51 150.959 385.42 152.723C386.264 151.076 387.568 149.78 389.332 148.836C391.097 147.86 392.989 147.381 395.009 147.4ZM419.111 152.101C420.083 150.852 421.401 149.804 423.065 148.959C424.729 148.114 426.604 147.701 428.69 147.721C431.074 147.744 433.238 148.361 435.18 149.572C437.156 150.749 438.697 152.403 439.802 154.533C440.908 156.664 441.448 159.103 441.421 161.851C441.395 164.6 440.809 167.061 439.662 169.236C438.516 171.378 436.943 173.052 434.945 174.258C432.98 175.432 430.805 176.007 428.421 175.984C426.334 175.964 424.484 175.533 422.869 174.689C421.255 173.813 419.941 172.741 418.926 171.473L418.764 188.46L413.101 188.406L413.487 148.023L419.149 148.077L419.111 152.101ZM435.66 161.796C435.678 159.909 435.296 158.282 434.514 156.917C433.766 155.519 432.749 154.466 431.464 153.758C430.213 153.018 428.859 152.641 427.402 152.627C425.978 152.613 424.616 152.965 423.318 153.681C422.053 154.397 421.016 155.447 420.208 156.83C419.433 158.214 419.037 159.849 419.019 161.737C419.001 163.625 419.366 165.284 420.114 166.715C420.895 168.113 421.912 169.183 423.163 169.923C424.448 170.664 425.802 171.041 427.226 171.055C428.683 171.069 430.044 170.718 431.309 170.001C432.608 169.252 433.645 168.169 434.42 166.752C435.228 165.336 435.642 163.684 435.66 161.796ZM452.903 139.011L452.553 175.767L446.89 175.713L447.241 138.957L452.903 139.011ZM485.208 161.722C485.198 162.749 485.123 163.675 484.983 164.502L464.071 164.303C464.216 166.49 465.01 168.253 466.455 169.591C467.899 170.929 469.681 171.609 471.8 171.629C474.847 171.658 477.011 170.404 478.294 167.866L484.403 167.924C483.552 170.433 482.025 172.488 479.824 174.09C477.657 175.659 474.967 176.428 471.755 176.397C469.139 176.373 466.793 175.771 464.718 174.592C462.676 173.38 461.069 171.709 459.898 169.578C458.759 167.415 458.203 164.926 458.23 162.111C458.257 159.296 458.843 156.835 459.99 154.726C461.169 152.585 462.791 150.944 464.855 149.805C466.952 148.666 469.342 148.109 472.024 148.135C474.607 148.159 476.903 148.744 478.912 149.889C480.922 151.034 482.479 152.639 483.586 154.703C484.692 156.733 485.233 159.073 485.208 161.722ZM479.314 159.878C479.301 157.791 478.572 156.112 477.127 154.84C475.682 153.568 473.883 152.921 471.73 152.901C469.777 152.882 468.098 153.495 466.696 154.74C465.293 155.952 464.449 157.617 464.164 159.733L479.314 159.878ZM497.466 153.444L497.321 168.594C497.311 169.62 497.536 170.368 497.995 170.836C498.488 171.271 499.314 171.494 500.473 171.505L503.95 171.538L503.905 176.257L499.434 176.214C496.884 176.19 494.936 175.575 493.59 174.37C492.244 173.165 491.583 171.222 491.609 168.539L491.753 153.39L488.525 153.359L488.569 148.739L491.797 148.77L491.862 141.965L497.575 142.02L497.51 148.825L504.166 148.888L504.121 153.508L497.466 153.444ZM534.345 162.191C534.335 163.217 534.26 164.144 534.12 164.971L513.208 164.771C513.353 166.958 514.148 168.721 515.592 170.06C517.036 171.398 518.818 172.077 520.937 172.098C523.984 172.127 526.149 170.872 527.431 168.334L533.541 168.393C532.689 170.902 531.162 172.957 528.961 174.559C526.794 176.128 524.104 176.897 520.892 176.866C518.276 176.841 515.93 176.239 513.855 175.06C511.814 173.849 510.207 172.177 509.035 170.047C507.896 167.883 507.341 165.394 507.367 162.58C507.394 159.765 507.981 157.303 509.127 155.195C510.306 153.053 511.928 151.413 513.992 150.273C516.089 149.134 518.479 148.578 521.162 148.603C523.744 148.628 526.04 149.213 528.05 150.358C530.059 151.503 531.617 153.107 532.723 155.171C533.83 157.202 534.37 159.542 534.345 162.191ZM528.451 160.346C528.438 158.26 527.709 156.581 526.264 155.308C524.819 154.036 523.02 153.39 520.868 153.369C518.914 153.351 517.236 153.964 515.833 155.209C514.43 156.421 513.587 158.085 513.301 160.202L528.451 160.346ZM597.967 142.629L587.406 177.053L580.998 176.992L573.996 150.796L566.047 176.85L559.689 176.839L550.233 142.174L556.244 142.231L563.128 170.414L571.145 142.374L577.503 142.434L584.439 170.468L591.908 142.572L597.967 142.629ZM614.175 177.756C611.592 177.731 609.263 177.129 607.187 175.95C605.113 174.738 603.489 173.067 602.317 170.936C601.146 168.773 600.573 166.283 600.6 163.469C600.627 160.687 601.263 158.226 602.509 156.085C603.754 153.944 605.442 152.305 607.573 151.166C609.703 150.027 612.076 149.47 614.692 149.495C617.308 149.52 619.671 150.122 621.779 151.301C623.887 152.48 625.544 154.152 626.748 156.316C627.953 158.48 628.542 160.953 628.516 163.735C628.489 166.516 627.836 168.977 626.557 171.118C625.279 173.258 623.541 174.914 621.344 176.085C619.18 177.224 616.791 177.781 614.175 177.756ZM614.221 172.838C615.678 172.852 617.039 172.517 618.304 171.834C619.602 171.151 620.656 170.118 621.464 168.734C622.272 167.351 622.685 165.666 622.704 163.679C622.723 161.693 622.358 160.017 621.609 158.652C620.861 157.254 619.861 156.201 618.609 155.493C617.358 154.786 616.003 154.425 614.546 154.412C613.089 154.398 611.728 154.732 610.463 155.416C609.231 156.1 608.245 157.133 607.503 158.517C606.761 159.868 606.381 161.537 606.362 163.524C606.334 166.471 607.057 168.763 608.532 170.399C610.04 172.003 611.937 172.816 614.221 172.838ZM645.848 178.058C643.265 178.033 640.936 177.431 638.861 176.252C636.786 175.04 635.163 173.369 633.991 171.238C632.82 169.075 632.247 166.585 632.274 163.771C632.3 160.989 632.937 158.528 634.182 156.387C635.428 154.246 637.116 152.607 639.247 151.468C641.377 150.329 643.75 149.772 646.366 149.797C648.982 149.822 651.344 150.424 653.452 151.603C655.561 152.783 657.217 154.454 658.422 156.618C659.627 158.782 660.216 161.255 660.189 164.037C660.163 166.818 659.51 169.279 658.231 171.42C656.952 173.56 655.214 175.216 653.017 176.387C650.854 177.526 648.464 178.083 645.848 178.058ZM645.895 173.14C647.352 173.154 648.713 172.819 649.978 172.136C651.276 171.453 652.329 170.42 653.137 169.037C653.945 167.653 654.359 165.968 654.378 163.981C654.397 161.995 654.032 160.319 653.283 158.954C652.535 157.556 651.535 156.503 650.283 155.796C649.031 155.088 647.677 154.727 646.22 154.714C644.763 154.7 643.402 155.034 642.137 155.718C640.905 156.402 639.918 157.435 639.176 158.819C638.435 160.17 638.055 161.839 638.036 163.826C638.008 166.773 638.731 169.065 640.206 170.701C641.714 172.305 643.61 173.118 645.895 173.14ZM663.899 163.973C663.925 161.224 664.511 158.796 665.657 156.687C666.837 154.579 668.409 152.955 670.373 151.814C672.372 150.641 674.579 150.066 676.997 150.089C678.785 150.106 680.536 150.52 682.25 151.331C683.998 152.11 685.379 153.15 686.393 154.451L686.519 141.238L692.232 141.293L691.881 178.05L686.169 177.995L686.208 173.872C685.268 175.188 683.967 176.269 682.303 177.114C680.672 177.959 678.797 178.372 676.678 178.352C674.293 178.329 672.113 177.712 670.138 176.501C668.196 175.257 666.656 173.553 665.517 171.39C664.412 169.194 663.873 166.721 663.899 163.973ZM686.3 164.286C686.318 162.398 685.936 160.755 685.155 159.357C684.406 157.959 683.406 156.89 682.155 156.149C680.903 155.409 679.549 155.031 678.092 155.018C676.635 155.004 675.274 155.355 674.009 156.071C672.744 156.755 671.707 157.788 670.899 159.171C670.125 160.522 669.728 162.141 669.71 164.028C669.692 165.916 670.058 167.575 670.806 169.006C671.587 170.438 672.603 171.54 673.854 172.314C675.138 173.055 676.493 173.432 677.917 173.446C679.374 173.459 680.735 173.108 682 172.392C683.265 171.675 684.285 170.625 685.06 169.242C685.869 167.825 686.282 166.173 686.3 164.286ZM723.593 178.7C721.275 178.678 719.193 178.26 717.346 177.448C715.499 176.602 714.053 175.429 713.008 173.929C711.962 172.429 711.449 170.685 711.468 168.699L717.528 168.756C717.646 170.248 718.214 171.479 719.231 172.449C720.282 173.419 721.751 173.913 723.638 173.931C725.592 173.95 727.12 173.501 728.221 172.584C729.323 171.634 729.881 170.414 729.896 168.924C729.907 167.765 729.568 166.818 728.88 166.083C728.224 165.348 727.385 164.777 726.362 164.37C725.373 163.963 723.986 163.519 722.202 163.039C719.956 162.421 718.124 161.807 716.706 161.198C715.321 160.555 714.138 159.584 713.157 158.283C712.176 156.982 711.696 155.255 711.716 153.103C711.735 151.116 712.248 149.382 713.256 147.901C714.264 146.421 715.665 145.292 717.461 144.514C719.257 143.736 721.33 143.359 723.681 143.381C727.026 143.413 729.75 144.283 731.853 145.992C733.99 147.669 735.16 149.965 735.364 152.881L729.105 152.822C729.018 151.562 728.432 150.48 727.348 149.576C726.264 148.671 724.828 148.211 723.039 148.194C721.417 148.178 720.088 148.579 719.054 149.397C718.019 150.215 717.495 151.403 717.48 152.959C717.47 154.019 717.776 154.899 718.399 155.601C719.055 156.269 719.877 156.807 720.867 157.214C721.857 157.621 723.21 158.064 724.928 158.544C727.207 159.195 729.055 159.842 730.473 160.485C731.924 161.128 733.14 162.116 734.121 163.45C735.135 164.752 735.631 166.495 735.611 168.68C735.594 170.435 735.098 172.087 734.123 173.634C733.181 175.181 731.795 176.427 729.964 177.37C728.167 178.28 726.043 178.723 723.593 178.7ZM754.069 179.09C751.486 179.065 749.157 178.463 747.082 177.284C745.008 176.072 743.384 174.401 742.212 172.27C741.041 170.107 740.468 167.617 740.495 164.803C740.522 162.021 741.158 159.56 742.404 157.419C743.649 155.278 745.337 153.639 747.468 152.5C749.598 151.361 751.971 150.804 754.587 150.829C757.203 150.854 759.565 151.456 761.674 152.635C763.782 153.815 765.438 155.486 766.643 157.65C767.848 159.814 768.437 162.287 768.41 165.069C768.384 167.85 767.731 170.311 766.452 172.452C765.173 174.592 763.436 176.248 761.239 177.419C759.075 178.558 756.685 179.115 754.069 179.09ZM754.116 174.172C755.573 174.186 756.934 173.851 758.199 173.168C759.497 172.485 760.55 171.452 761.358 170.069C762.166 168.685 762.58 167 762.599 165.013C762.618 163.027 762.253 161.351 761.504 159.986C760.756 158.588 759.756 157.535 758.504 156.828C757.252 156.12 755.898 155.76 754.441 155.746C752.984 155.732 751.623 156.066 750.358 156.75C749.126 157.434 748.139 158.467 747.398 159.851C746.656 161.202 746.276 162.871 746.257 164.858C746.229 167.805 746.952 170.097 748.427 171.733C749.935 173.338 751.831 174.15 754.116 174.172ZM779.889 142.129L779.538 178.885L773.876 178.831L774.226 142.075L779.889 142.129ZM812.02 151.824L811.759 179.193L806.096 179.139L806.127 175.91C805.222 177.027 804.038 177.91 802.575 178.559C801.145 179.174 799.618 179.474 797.996 179.459C795.843 179.438 793.911 178.973 792.197 178.062C790.517 177.152 789.188 175.815 788.212 174.05C787.268 172.286 786.808 170.162 786.832 167.679L786.985 151.585L792.598 151.639L792.453 166.888C792.429 169.338 793.024 171.232 794.236 172.568C795.449 173.871 797.116 174.533 799.235 174.553C801.354 174.573 803.033 173.943 804.27 172.663C805.541 171.351 806.188 169.469 806.212 167.019L806.357 151.77L812.02 151.824ZM826.053 156.578L825.909 171.727C825.899 172.754 826.124 173.501 826.583 173.969C827.075 174.404 827.901 174.627 829.06 174.639L832.537 174.672L832.492 179.39L828.022 179.348C825.472 179.323 823.524 178.709 822.178 177.504C820.831 176.299 820.171 174.355 820.197 171.673L820.341 156.523L817.112 156.492L817.156 151.873L820.385 151.904L820.45 145.099L826.162 145.153L826.097 151.958L832.753 152.022L832.709 156.641L826.053 156.578ZM840.888 148.473C839.862 148.463 839.004 148.107 838.315 147.405C837.627 146.703 837.287 145.839 837.297 144.812C837.307 143.786 837.663 142.928 838.364 142.239C839.067 141.551 839.931 141.211 840.957 141.221C841.951 141.23 842.792 141.586 843.481 142.288C844.17 142.99 844.509 143.854 844.499 144.881C844.489 145.907 844.134 146.765 843.432 147.454C842.729 148.143 841.882 148.482 840.888 148.473ZM843.635 152.125L843.374 179.494L837.712 179.44L837.973 152.071L843.635 152.125ZM862.676 180.125C860.093 180.101 857.764 179.499 855.688 178.32C853.614 177.108 851.99 175.437 850.818 173.306C849.647 171.142 849.074 168.653 849.101 165.838C849.128 163.057 849.764 160.596 851.01 158.455C852.255 156.314 853.944 154.674 856.074 153.536C858.204 152.397 860.577 151.84 863.193 151.865C865.809 151.89 868.172 152.492 870.28 153.671C872.388 154.85 874.045 156.522 875.249 158.686C876.454 160.85 877.043 163.323 877.017 166.105C876.99 168.886 876.337 171.347 875.058 173.488C873.78 175.628 872.042 177.284 869.845 178.455C867.681 179.594 865.292 180.15 862.676 180.125ZM862.722 175.208C864.18 175.222 865.541 174.887 866.806 174.204C868.104 173.521 869.157 172.487 869.965 171.104C870.773 169.721 871.186 168.036 871.205 166.049C871.224 164.062 870.859 162.386 870.11 161.021C869.362 159.623 868.362 158.571 867.11 157.863C865.859 157.156 864.504 156.795 863.047 156.781C861.59 156.767 860.229 157.102 858.964 157.786C857.732 158.469 856.746 159.503 856.004 160.887C855.262 162.238 854.882 163.906 854.863 165.893C854.835 168.84 855.558 171.132 857.033 172.769C858.541 174.373 860.438 175.186 862.722 175.208ZM896.556 152.183C898.708 152.203 900.625 152.669 902.305 153.579C904.018 154.49 905.347 155.827 906.291 157.591C907.234 159.355 907.694 161.479 907.67 163.963L907.516 180.106L901.904 180.052L902.049 164.754C902.073 162.303 901.478 160.426 900.265 159.123C899.052 157.787 897.387 157.109 895.267 157.089C893.148 157.068 891.453 157.715 890.182 159.027C888.944 160.307 888.314 162.172 888.291 164.622L888.145 179.921L882.482 179.867L882.743 152.498L888.406 152.552L888.376 155.682C889.314 154.565 890.498 153.698 891.928 153.083C893.391 152.467 894.933 152.167 896.556 152.183Z" fill="black"/>
</g>
<defs>
<clipPath id="clip0_329_21">
<rect width="969" height="202" fill="white"/>
</clipPath>
</defs>
</svg>
