<svg width="178" height="202" viewBox="0 0 178 202" fill="none" xmlns="http://www.w3.org/2000/svg">
<path d="M86.4583 1.71469C88.5401 0.535372 91.0913 0.549723 93.161 1.74955L174.337 48.8029C176.43 50.0163 177.709 52.2562 177.696 54.671L177.228 147.908C177.215 150.327 175.907 152.548 173.811 153.739L173.809 153.741L92.1667 199.966L92.1643 199.963C90.0801 201.144 87.5312 201.13 85.4641 199.933L85.4616 199.931L4.28778 152.88L4.28538 152.877C2.19999 151.666 0.914431 149.431 0.926847 147.012L1.39463 53.772L1.39465 53.7696C1.40795 51.3533 2.71548 49.1276 4.8163 47.9371L86.4583 1.71469ZM8.82962 54.211L8.36709 146.644L88.845 193.294L169.791 147.467L170.255 55.0335L89.7753 8.38152L8.82962 54.211Z" fill="#2653A0"/>
<path d="M89.5998 70.5963C86.0313 62.6104 80.0195 56.0923 76.1689 52.3281L103.377 52.5876C93.327 61.9346 90.3378 69.6094 89.5998 70.5963Z" fill="#2653A0"/>
<path d="M80.2399 100.667C80.4997 73.424 49.7898 62.6711 36.7649 62.5469L36.3242 108.762C36.0204 140.625 71.0253 147.527 79.7922 147.611L80.2399 100.667Z" fill="#2653A0"/>
<path d="M98.3744 100.828C98.6342 73.5851 129.544 63.4199 142.569 63.5441L142.128 109.759C141.824 141.622 106.694 147.855 97.9268 147.772L98.3744 100.828Z" fill="#2653A0"/>
</svg>
